<?xml version="1.0" encoding="UTF-8" standalone="no"?>
<!DOCTYPE svg PUBLIC "-//W3C//DTD SVG 1.1//EN"
 "http://www.w3.org/Graphics/SVG/1.1/DTD/svg11.dtd">
<!-- Generated by graphviz version 2.26.3 (20100126.1600)
 -->
<!-- Title: Assignment1 Pages: 1 -->
<svg width="249pt" height="416pt"
 viewBox="0.00 0.00 248.94 416.00" xmlns="http://www.w3.org/2000/svg" xmlns:xlink="http://www.w3.org/1999/xlink">
<g id="graph1" class="graph" transform="scale(1 1) rotate(0) translate(4 412)">
<title>Assignment1</title>
<polygon fill="white" stroke="white" points="-4,5 -4,-412 245.937,-412 245.937,5 -4,5"/>
<!-- 1 -->
<g id="node1" class="node"><title>1</title>
<ellipse fill="none" stroke="black" cx="187" cy="-389" rx="34.8574" ry="18.3848"/>
<text text-anchor="middle" x="187" y="-385.4" font-family="Times Roman,serif" font-size="14.00">a:=0</text>
</g>
<!-- 2 -->
<g id="node2" class="node"><title>2</title>
<ellipse fill="none" stroke="black" cx="187" cy="-315" rx="48.9975" ry="18.3848"/>
<text text-anchor="middle" x="187" y="-311.4" font-family="Times Roman,serif" font-size="14.00">x:=a+b</text>
</g>
<!-- 1&#45;&gt;2 -->
<g id="edge2" class="edge"><title>1&#45;&gt;2</title>
<path fill="none" stroke="black" d="M187,-370.327C187,-362.264 187,-352.648 187,-343.711"/>
<polygon fill="black" stroke="black" points="190.5,-343.667 187,-333.667 183.5,-343.667 190.5,-343.667"/>
</g>
<!-- 3 -->
<g id="node3" class="node"><title>3</title>
<ellipse fill="none" stroke="black" cx="187" cy="-241" rx="31.8198" ry="18.3848"/>
<text text-anchor="middle" x="187" y="-237.4" font-family="Times Roman,serif" font-size="14.00">x&gt;a</text>
</g>
<!-- 2&#45;&gt;3 -->
<g id="edge4" class="edge"><title>2&#45;&gt;3</title>
<path fill="none" stroke="black" d="M187,-296.327C187,-288.264 187,-278.648 187,-269.711"/>
<polygon fill="black" stroke="black" points="190.5,-269.667 187,-259.667 183.5,-269.667 190.5,-269.667"/>
</g>
<!-- 4 -->
<g id="node4" class="node"><title>4</title>
<ellipse fill="none" stroke="black" cx="41" cy="-167" rx="41.0122" ry="18.3848"/>
<text text-anchor="middle" x="41" y="-163.4" font-family="Times Roman,serif" font-size="14.00">a==0</text>
</g>
<!-- 3&#45;&gt;4 -->
<g id="edge6" class="edge"><title>3&#45;&gt;4</title>
<path fill="none" stroke="black" d="M162.891,-228.78C139.635,-216.993 104.126,-198.995 77.4221,-185.461"/>
<polygon fill="black" stroke="black" points="78.8805,-182.276 68.3785,-180.877 75.7158,-188.52 78.8805,-182.276"/>
</g>
<!-- 8 -->
<g id="node8" class="node"><title>8</title>
<ellipse fill="none" stroke="black" cx="149" cy="-167" rx="48.9975" ry="18.3848"/>
<text text-anchor="middle" x="149" y="-163.4" font-family="Times Roman,serif" font-size="14.00">a:=b+a</text>
</g>
<!-- 3&#45;&gt;8 -->
<g id="edge8" class="edge"><title>3&#45;&gt;8</title>
<path fill="none" stroke="black" d="M177.801,-223.087C173.386,-214.489 167.999,-203.998 163.083,-194.425"/>
<polygon fill="black" stroke="black" points="166.06,-192.559 158.378,-185.262 159.833,-195.757 166.06,-192.559"/>
</g>
<!-- 5 -->
<g id="node5" class="node"><title>5</title>
<ellipse fill="none" stroke="black" cx="56" cy="-93" rx="45.9619" ry="18.3848"/>
<text text-anchor="middle" x="56" y="-89.4" font-family="Times Roman,serif" font-size="14.00">z:=a*b</text>
</g>
<!-- 4&#45;&gt;5 -->
<g id="edge10" class="edge"><title>4&#45;&gt;5</title>
<path fill="none" stroke="black" d="M44.7851,-148.327C46.4195,-140.264 48.3687,-130.648 50.1801,-121.711"/>
<polygon fill="black" stroke="black" points="53.6596,-122.163 52.2161,-111.667 46.7991,-120.773 53.6596,-122.163"/>
</g>
<!-- 7 -->
<g id="node7" class="node"><title>7</title>
<ellipse fill="none" stroke="black" cx="185" cy="-93" rx="34.8574" ry="18.3848"/>
<text text-anchor="middle" x="185" y="-89.4" font-family="Times Roman,serif" font-size="14.00">x:=x</text>
</g>
<!-- 4&#45;&gt;7 -->
<g id="edge16" class="edge"><title>4&#45;&gt;7</title>
<path fill="none" stroke="black" d="M68.0853,-153.081C91.3473,-141.127 125.024,-123.821 150.265,-110.85"/>
<polygon fill="black" stroke="black" points="152.192,-113.795 159.486,-106.111 148.992,-107.569 152.192,-113.795"/>
</g>
<!-- 6 -->
<g id="node6" class="node"><title>6</title>
<ellipse fill="none" stroke="black" cx="160" cy="-19" rx="44.7575" ry="18.3848"/>
<text text-anchor="middle" x="160" y="-15.4" font-family="Times Roman,serif" font-size="14.00">x:=x&#45;1</text>
</g>
<!-- 5&#45;&gt;6 -->
<g id="edge12" class="edge"><title>5&#45;&gt;6</title>
<path fill="none" stroke="black" d="M78.8232,-76.7604C93.4539,-66.3501 112.641,-52.698 128.687,-41.2803"/>
<polygon fill="black" stroke="black" points="131.111,-43.8511 137.23,-35.2017 127.053,-38.1475 131.111,-43.8511"/>
</g>
<!-- 6&#45;&gt;3 -->
<g id="edge14" class="edge"><title>6&#45;&gt;3</title>
<path fill="none" stroke="black" d="M188.472,-33.4703C203.509,-42.7994 220.557,-56.4723 229,-74 250.645,-118.933 238.186,-138.825 222,-186 218.419,-196.438 212.488,-206.903 206.518,-215.86"/>
<polygon fill="black" stroke="black" points="203.503,-214.064 200.62,-224.259 209.231,-218.087 203.503,-214.064"/>
</g>
<!-- 7&#45;&gt;3 -->
<g id="edge18" class="edge"><title>7&#45;&gt;3</title>
<path fill="none" stroke="black" d="M194.247,-111.052C199.096,-121.539 204.53,-135.175 207,-148 210.194,-164.584 209.93,-169.367 207,-186 205.378,-195.206 202.339,-204.898 199.111,-213.538"/>
<polygon fill="black" stroke="black" points="195.749,-212.52 195.308,-223.106 202.254,-215.106 195.749,-212.52"/>
</g>
</g>
</svg>
